<svg xmlns="http://www.w3.org/2000/svg" width="408.859" height="312.292" viewBox="0 0 408.859 312.292"><defs><style>.a{fill:#ebf3fa;}.b{fill:#233862;}.c{fill:#2a4e96;}.d{fill:#aec3ff;}.e{fill:#ffb27d;}.f{fill:#e2915a;}.g{fill:#fff;}.h{fill:#ed7d2b;}.i{fill:#db6516;}.j{fill:#9db0f4;}.k{fill:#f99746;}.l{fill:#163560;}.m{fill:#ed975d;}.n{fill:#2b478b;}.o{fill:#6bb7bf;}.p{fill:#86d1cd;}.q{fill:#f1a34f;}.r{fill:#db7714;}.s{fill:#5685d8;}.t{fill:#739af0;}</style></defs><g transform="translate(-28.538 -0.013)"><path class="a" d="M503.2,312.3l137.01-.842,36.52-.013,12.1-.006,36.589-.013,167.169-.053s38.233-58.125-2.609-113.331c-42.347-57.238-62.937-10.623-75.952-91.192-32.766-202.8-356.707-84.767-271.74,87.809,30.594,62.14-60.221,29.112-39.087,117.64Z" transform="translate(-471.438 0)"/><path class="b" d="M4216.813,5254.606s-.612,7.073.884,7.81l19.133-.04s0-2.207-3.073-2.7-8.472-2.291-9.386-6.3S4216.813,5254.606,4216.813,5254.606Z" transform="translate(-3975.996 -4952.073)"/><path class="b" d="M3255.25,5239.162s-.576,9.811.92,10.547l19.132-.04s0-2.207-3.073-2.7-8.472-2.291-9.386-6.3-7.594-1.51-7.594-1.51Z" transform="translate(-3069.334 -4939.367)"/><path class="c" d="M3245.65,3197.645a35.621,35.621,0,0,0,5.424,2.313,24.224,24.224,0,0,0,5.2.146c6.508-17.446,26.69-88.366,26.69-88.366.877,19.611,4.417,39.168,8.095,54.89q.147.631.294,1.254v.006c.089.378.18.754.271,1.124,0,.018.007.034.009.051,4.464,18.552,8.94,31.187,8.94,31.187s1.156,1.462,4.374.793c3.688-.764,4.917-2.385,4.917-2.385-2.385-75.567-3.718-118.178-3.718-118.178s-31.944-17.257-40.622-2.506-19.873,119.672-19.873,119.672Z" transform="translate(-3060.385 -2896.642)"/><path class="d" d="M3467.326,1226.73c4.142-14.806,4.822-28.864,4.789-40.5-.043-16.566-1.531-28.233,3.455-30.2,0,0,15.4-4.477,26.005-6.451a52.364,52.364,0,0,1,4.985-2.481c3.346-1.359,16.4-20.33,18.611-24.873s5.875-24.332,5.875-24.332l5.086,1.622s1.527,22.213.794,28-16.893,30.686-18.233,32.865h0c-5.753,21.028,0,55.249-2.629,62.878-1.352,3.924-26.433,11.115-40.161,10.211-.684-.045-1.341-.111-1.964-.2l-.006,0c-3.249-.452-5.61-1.488-6.475-3.309a4.5,4.5,0,0,1-.133-3.231Z" transform="translate(-3269.19 -1035.209)"/><path class="e" d="M4562.01,954.033s-2.875-8.35-.772-8.592,7.376-.217,8.026,1.194-2.168,9.021-2.168,9.021Z" transform="translate(-4300.152 -891.352)"/><path class="e" d="M4562.48,826.547s1.122-6.922,2.043-7.9.787,6.619.787,6.619.514-6.314,1.22-6.71,1.139,6.738,1.139,6.738.073-5.669.551-5.473.805,5.473.805,5.473.218-4.114.867-3.377,1.269,5.156,1.269,5.156l-8.682-.526Z" transform="translate(-4302.049 -771.805)"/><path class="e" d="M4527.595,981.616a8.188,8.188,0,0,1-2.4-2.952c-.435-1.41-1.709-3.781-1.032-4.068s2.657,2.766,2.657,2.766l.772,4.253Z" transform="translate(-4265.736 -918.935)"/><path class="e" d="M3762.909,1848.769l.246,1.285s1.145,3.944-3.683,5.508-8.893,2.289-9.373-.834a66.58,66.58,0,0,0-.327-8.357,14.164,14.164,0,0,0-.651-2.368l9.539-2.085,2.912-.1,1.337,6.949Z" transform="translate(-3535.116 -1736.674)"/><path class="f" d="M3761.581,1841.82l.888,4.683c-9.062,2.4-13.025-1.645-13.339-2.5l9.539-2.085,2.912-.1Z" transform="translate(-3535.126 -1736.674)"/><path class="e" d="M3652.815,1549.325c2.81,5.713,10.532,3.332,13.786,2.011.916-.371,1.477-.658,1.477-.658.986-.584,1.11-2.431.769-4.709-.672-4.508-3.16-10.7-4.353-12.133-1.8-2.149-4.629-4.224-11.923-.108s-3.359,8.278.244,15.6Z" transform="translate(-3440.208 -1443.94)"/><path class="b" d="M3607.22,1462.34a26.9,26.9,0,0,1-8.083.075c-3.7-.509-7.422,2.24-8.574,3.331a2.087,2.087,0,0,1,.1-.905,1.88,1.88,0,0,0-.408,1.227c-.048.064-.068.1-.048.11a2.414,2.414,0,0,0-1.109.39s.3-.131.463.036a.182.182,0,0,0,.064.041c-4.449,3.932-2.642,12.2-.457,13.618,2.629,1.705,7.143,6.4,7.143,6.4a11.6,11.6,0,0,0-1.08-3.6c-.922-1.892.8-2.375,2.719-3.891s-.6-3.544.865-5.617,8.7-3.125,8.279-4.277c2.325-1.67.2-6.666.125-6.931Z" transform="translate(-3382.142 -1378.856)"/><path class="g" d="M3922.82,1781.69s.47.707,2.353-.127c0,0,1.579-.7,1.215-1.533A5.554,5.554,0,0,0,3922.82,1781.69Z" transform="translate(-3698.902 -1678.411)"/><path class="h" d="M3911.785,2147.42s4.351,28.87,36.893,48.918l3.037,8.823H3939.97s-29.147-24.443-31.1-56.911l2.916-.83Z" transform="translate(-3685.748 -2024.83)"/><path class="i" d="M3871.353,2075.126v-4.376l-5.363,1.518,2.448,3.689Z" transform="translate(-3645.315 -1952.537)"/><path class="j" d="M3917.4,1963.56l3.139,2.683a12.349,12.349,0,0,1-1.249,7.812l-6.327-3.617a9.03,9.03,0,0,0,4.436-6.878Z" transform="translate(-3689.604 -1851.465)"/><path class="j" d="M3724.932,2013.869s-.627,3.4-2.276,5.079c0,0-7.127-1.248-9.107-4.665l2.985-4.663s.714,3.183,8.4,4.249Z" transform="translate(-3501.576 -1894.896)"/><path class="e" d="M3164.78,3378.137s-.013,6.465.582,7.748,3.264,5.473,4.493,6.368-.266-5.177.121-6.287.859,2.19,1.427,2.327.723-2.775.855-3.825-2.425-3.949-3.185-6.3-4.293-.036-4.293-.036Z" transform="translate(-2984.131 -3184.337)"/><path class="d" d="M3164.267,2116.351s-6.267,1.708-10.513,11.054c-4.455,9.8-16.375,31.569-16.817,34.574s.79,31.062.79,31.062,5.217.2,6.827-2.272c0,0,1.816-24.632,2.62-25.971s21.331-25.82,19.6-32.032-2.508-16.416-2.508-16.416Z" transform="translate(-2957.786 -1995.534)"/><path class="j" d="M3467.459,2639.886a17,17,0,0,0,6.475,3.309s0,0,.006,0a5.158,5.158,0,0,0,1.964.2c11.47-1.182,9.707-45.751,4.149-49.044-5.856-3.471-7.938,1.8-7.938,1.8.032,11.639-.648,25.7-4.789,40.5A4.5,4.5,0,0,0,3467.459,2639.886Z" transform="translate(-3269.19 -2445.135)"/><path class="b" d="M4046.561,4752.814c-.078-.348-.166-.721-.271-1.124C4046.379,4752.068,4046.47,4752.443,4046.561,4752.814Z" transform="translate(-3815.323 -4480.445)"/><path class="b" d="M3907.415,3704.727c-3.51-16.614.274-61.132-1.416-61.978-1.735-.867-6.679,7.088-6.679,7.088C3900.2,3669.447,3903.737,3689,3907.415,3704.727Z" transform="translate(-3676.742 -3434.741)"/><path class="e" d="M2485.141,5145.028l-1.011-7.288,4.25-3.55,1.339,9.646Z" transform="translate(-2342.333 -4841.112)"/><path class="b" d="M2461.314,5285.687h-17.326a9.518,9.518,0,0,1,.49-4.646c.866-1.922,2.217-3.108,2.339-4.581a5.2,5.2,0,0,0,4.961,1.525,18.975,18.975,0,0,0,3.005,3.9c1.134.813,6.182.523,6.531,3.8Z" transform="translate(-2304.393 -4975.261)"/><path class="k" d="M2333.312,3443.421c-1.133,9.116-2.061,17.709-2.816,25.718-4.031,42.675-3.24,68.757-3.24,68.757s-.291.772-2.791.784a14.282,14.282,0,0,1-2.8-.3s-9.029-27.865-8.332-43.723a24.269,24.269,0,0,1,.7-5.133c2.166-8.114-8.015-39.142,3.052-50.695s16.741.411,16.22,4.594Z" transform="translate(-2179.872 -3237.905)"/><path class="h" d="M2333.312,3443.421c-1.133,9.116-2.061,17.709-2.816,25.718l-17.16,25.516a24.27,24.27,0,0,1,.7-5.133c2.167-8.114-8.015-39.142,3.052-50.7s16.741.412,16.22,4.594Z" transform="translate(-2179.871 -3237.905)"/><path class="e" d="M2912,1917.978s-.417-2.082-.887-3.672c-.207-.7,1.243-5.322,2.245-5.891s3.619,2.542,2.88,4.931c-.381,1.227-1,5.22-1,5.22l-3.234-.587Z" transform="translate(-2744.922 -1799.404)"/><path class="e" d="M2887,2001.964s-.546-1.207-1.039-1.4-1.019-2.171-1.382-2.953c0,0,.349-.512.961.147.374.4,1.2,1.581,1.2,1.581l.255,2.629Z" transform="translate(-2719.925 -1883.391)"/><path class="e" d="M1572.791,2128.656c-.105.219-.253.612-.385.979q0-.15-.005-.3c-.006-.734-2.746-4.726-3.871-4.975s-2.716,3.489-1.309,5.557c.723,1.062,2.488,4.7,2.488,4.7l2.919-1.508s.168-1.314.583-1.645.34-2.374.458-3.229c0,0-.484-.387-.876.421Z" transform="translate(-1477.241 -2003.078)"/><path class="e" d="M1987.735,5127.368c-.245-2.335-.305-8.479-.305-8.479s6.262-2,6.031-.629a44.279,44.279,0,0,0-.825,10.1l-2.532,1.513-2.368-2.506Z" transform="translate(-1873.986 -4825.637)"/><path class="k" d="M1998.759,3571.345s-24.189,66.308-28.951,95.07a4.829,4.829,0,0,1-3.161.506,3.536,3.536,0,0,1-2.973-1.906s-4.37-34.473,4.316-46.441c5.967-8.223-2.574-44.333,11.325-47.23S1998.759,3571.345,1998.759,3571.345Z" transform="translate(-1850.549 -3366.262)"/><path class="l" d="M1868.85,2259.205v0a.577.577,0,0,0-.02-.085q-.212-.876-.462-1.728v0a38.907,38.907,0,0,0-1.758-4.87c-.375-.84-.762-1.619-1.159-2.314-.06-.107-.12-.206-.177-.309l0,0a6.947,6.947,0,0,0-2.762-2.993,8.294,8.294,0,0,0-4.552-.189,2.1,2.1,0,0,1,.869-.581,6.922,6.922,0,0,0-2.354,1c-11.141-2.492-10.49,13.269-9.731,16.84s-2.832,5.308-7.89,8.963c-9.654,6.974-9.493,14.367-9.493,14.367.087.036.183.077.281.129.388-.957,1.212-2.767,2.076-3.15a37.243,37.243,0,0,0-.926,3.744c1.47.81,3.506,2.066,5.716,3.482h0c2.957,1.893,6.22,4.07,8.835,5.837a5.992,5.992,0,0,1-.065-2.324l.833,2.581.11.336c1.668,1.131,2.985,2.036,3.654,2.5.068.047.129.091.184.127.2.134.3.208.3.208-.222-.912.752-3.292,2.387-6.289.112-.209.231-.421.352-.636.528-.948,1.118-1.948,1.752-2.976.228-.373.46-.745.7-1.124,0,0,0,0,0,0,.191-.306.386-.608.587-.918h0c.473-.733.963-1.47,1.463-2.208,1.295-1.913,2.666-3.812,4.02-5.554a48.913,48.913,0,0,1,5.515-6.183q.081-.164.148-.333a11.073,11.073,0,0,0,.6-1.905c.047-.2.088-.4.125-.6a26.163,26.163,0,0,0,.405-4.725,26.772,26.772,0,0,1-.059,4.762c-.031.256-.064.493-.1.714v0a9.731,9.731,0,0,1-.292,1.253,6.562,6.562,0,0,0,.7-1.082,7.83,7.83,0,0,0,.366-.81c1.3-3.328.953-8.293-.177-12.95Z" transform="translate(-1724.935 -2117.906)"/><path class="e" d="M2313.895,2604.608c.038.011-3.119,2.3-5.8,1.974-2.519-.3-4.567-3.2-4.535-3.215.995-.355,1.081-1.808.159-7.857l.477.022,8.02.384s.188,2.478.526,4.789C2313.029,2602.645,2313.42,2604.467,2313.895,2604.608Z" transform="translate(-2172.074 -2447.343)"/><path class="m" d="M2322.73,2596.284s.188,2.478.526,4.789c-4.378.525-7.274-3.109-8.546-5.173l8.02.384Z" transform="translate(-2182.584 -2447.71)"/><path class="l" d="M2230.17,2305.564a23.162,23.162,0,0,1-3.829-6.276c-.719-2.146-.812-10.481,7.572-10.525a11.271,11.271,0,0,1,4.885,1.061c1.962.938,4.92,3.154,3.1,10.71l-.389,2.52-11.343,2.511Z" transform="translate(-2098.976 -2158.103)"/><path class="g" d="M2138.73,2759.069a33.975,33.975,0,0,1-23.54,3.015c-.155-.038-10.79-1.736-10.79-1.736.182-.5,1.557-8.716,1.737-9.175,2.325-6,6.573-38.558,10.123-40.164.906.987,3.5,1.663,5.714,1.466,2.553-.226,3.408-1.328,3.2-2.515,2.825,1.336,5,2.578,5,2.578,2.581,3.87,8.564,46.531,8.564,46.531Z" transform="translate(-1984.279 -2555.26)"/><path class="e" d="M2283.223,2355.945s-10.289,1.7-11.252-4.719-2.939-10.53,3.589-11.89,8.176.9,9.018,2.965S2285.875,2355.336,2283.223,2355.945Z" transform="translate(-2141.296 -2205.402)"/><path class="l" d="M2234.322,2315.079s-1.7,7.958-5.871,9.717-6.221.878-6.221.878a12.414,12.414,0,0,0,2.936-7.848s6.492-6.017,9.156-2.747Z" transform="translate(-2095.383 -2182.001)"/><path class="l" d="M2423.391,2318.622a9.206,9.206,0,0,1,3.117,2.929c.757,1.559,1.49,4.893,2.455,4.632,0,0,1.366-5.44-1.457-7.982-2.992-2.7-4.115.421-4.115.421Z" transform="translate(-2285.061 -2184.827)"/><path class="n" d="M2497.739,2070.083a6.575,6.575,0,0,0-1.84-.569,5.716,5.716,0,0,0-1.616.169s-2.9,18.045-3.118,19-12.453,14.74-15.751,14.685c-2.979-.05-6.508,2.25-7.163,2.692,0,0,6.938,14.67,7.284,17.426.376,3,3.967,49.172,3.967,49.172s-.214,2.149,3.8.994,5.018-2.11,5.018-2.11-3.686-36.352-4.461-47.657a21.559,21.559,0,0,0-.7-4.217,4.275,4.275,0,0,1,.691-3.632c5.074-6.966,13.088-18.251,13.533-20.649.658-3.525.361-25.3.361-25.3Z" transform="translate(-2327.36 -1951.361)"/><path class="b" d="M1957.9,5285.687h-17.327a9.526,9.526,0,0,1,.49-4.646c.868-1.922,2.217-3.108,2.34-4.581a5.2,5.2,0,0,0,4.96,1.525,19,19,0,0,0,3.006,3.9c1.132.813,6.181.523,6.53,3.8Z" transform="translate(-1829.712 -4975.261)"/><path class="n" d="M1667.552,2312.171c-.585-3.592-8.04-18.021-8.04-18.021s-4.713-1.41-7.815-.286-19.152-7.938-19.666-8.772-9.11-16.853-9.11-16.853a1.993,1.993,0,0,0-1.855.183,2.09,2.09,0,0,0-1.136,1.739s6.635,20.168,8.4,23.288c1.064,1.882,10.013,8.432,16.951,13.337a4.351,4.351,0,0,1,1.8,4.137c-.933,6.9-1.17,10.781-2.243,22.615-.89,9.818-1.231,28.825-1.231,28.825s7.764,2.685,13.122,3.042,6.526-5.292,6.526-5.292,4.895-44.247,4.294-47.943Z" transform="translate(-1527.463 -2138.622)"/><path class="g" d="M2427.35,2566.046a4.6,4.6,0,0,0,2.726.512c1.011-.151,1.24-1.351,1.24-1.351a3.993,3.993,0,0,0-1.824,0A7.768,7.768,0,0,0,2427.35,2566.046Z" transform="translate(-2288.795 -2418.679)"/><path class="l" d="M5690.085,2349.433s3.2,5.267-2.812,8.584c0,0,4.619,1.665,6.226,1.037a3.519,3.519,0,0,1-.7.566s4.34,1.378,6.5.625,6.825-21.772-5.989-22.881c0,0-10.106-3.619-12.245,7.66s-6.028,10.184-6.028,10.184a6.063,6.063,0,0,0,1.465.944s.84-.054,1.1-.4a2.508,2.508,0,0,1-.572.709s4.1,1.549,6.608.676,6.4-5.266,6.444-7.705Z" transform="translate(-5351.102 -2203.412)"/><path class="b" d="M5713.27,5321.205h16.348a8.98,8.98,0,0,0-.463-4.382c-.818-1.814-2.091-2.935-2.208-4.323a4.913,4.913,0,0,1-4.68,1.439,17.835,17.835,0,0,1-2.837,3.677c-1.069.767-5.831.5-6.16,3.588Z" transform="translate(-5387.149 -5009.244)"/><path class="n" d="M5632.567,3599.067a14.834,14.834,0,0,1-2.853.58c-2.574.23-2.949-.537-2.949-.537s-2.56-22.78-10.842-66.32a121.206,121.206,0,0,1-2.1-15.358c-.128-1.675-.255-3.535-.393-5.719-.376-5.87.515-15.745,4.919-18.341,2-1.182,4.729-.857,8.4,2.032.29.227.586.47.886.731,10.733,9.285,6.333,35.948,6.767,48.483a16.844,16.844,0,0,0,.706,4.925c.554,1.5,1.743,3.575,2.013,5.53,2.253,16.259-4.553,43.991-4.553,43.991Z" transform="translate(-5292.938 -3293.349)"/><path class="b" d="M5634.391,3555.247l-20.576-27.187c-.128-1.675-.255-3.535-.393-5.718-.376-5.87.515-15.745,4.919-18.341l8.4,2.032c.29.227.586.47.886.731,10.733,9.285,6.333,35.948,6.767,48.484Z" transform="translate(-5292.928 -3303.975)"/><path class="b" d="M6739.361,4616.744l-6.806-14.864a8.971,8.971,0,0,0-3.79,2.243c-1.309,1.5-2.257,1.231-5.236-.837,1.121,1.734,1.273,2.756,1.964,5.035.548.068,3.667,3.084,6.86,3.916C6733.627,4612.568,6736.411,4617.732,6739.361,4616.744Z" transform="translate(-6339.743 -4339.187)"/><path class="n" d="M5750.635,3590.756s14.649,50.925,20.017,54.2,33.588,7.786,39.322,10.245a4.306,4.306,0,0,0,.288-3.143,18.94,18.94,0,0,0-.9-2.185s-17.524-13.172-29.06-14.5c-2.861-.331,5.828-44.043-13.514-45.789-17.669-1.594-16.155,1.173-16.155,1.173Z" transform="translate(-5422.351 -3384.206)"/><path class="e" d="M5317.01,2004.523s.394-1.965.838-3.464c.2-.664-1.173-5.021-2.12-5.558s-3.413,2.4-2.716,4.652c.358,1.158.948,4.924.948,4.924Z" transform="translate(-5009.624 -1881.522)"/><path class="e" d="M5385.069,2083.773s.516-1.139.98-1.324.963-2.048,1.3-2.786c0,0-.331-.483-.907.139-.353.379-1.137,1.49-1.137,1.49Z" transform="translate(-5077.684 -1960.772)"/><path class="e" d="M6553.674,2203.3c.1.207.239.577.363.924,0-.095,0-.188,0-.28.008-.692,2.591-4.458,3.654-4.694s2.563,3.292,1.236,5.243c-.68,1-2.348,4.431-2.348,4.431l-2.752-1.423s-.16-1.24-.548-1.553-.321-2.24-.433-3.046C6552.85,2202.907,6553.307,2202.541,6553.674,2203.3Z" transform="translate(-6178.805 -2073.695)"/><path class="e" d="M5802.49,2652.363c-.034.01,2.945,2.166,5.469,1.864,2.376-.284,4.308-3.022,4.277-3.034-.938-.336-1.018-1.706-.149-7.413l-.45.021-7.567.363s-.178,2.338-.5,4.518c-.266,1.83-.634,3.549-1.084,3.683Z" transform="translate(-5471.276 -2492.857)"/><path class="m" d="M5821.986,2644.5s-.178,2.338-.5,4.518c4.132.5,6.863-2.933,8.064-4.88l-7.567.363Z" transform="translate(-5489.192 -2493.197)"/><path class="l" d="M5786.47,2370.2a21.869,21.869,0,0,0,3.613-5.92c.678-2.025.765-9.888-7.144-9.93a10.631,10.631,0,0,0-4.608,1c-1.851.885-4.643,2.976-2.93,10.1l.367,2.377,10.7,2.368Z" transform="translate(-5445.23 -2219.943)"/><path class="e" d="M5636.231,2799.251s7.422,4.684,19.785,1.675c.146-.036,7.029-1.133,7.029-1.133-.172-.472-7.407-12.423-7.576-12.857-2.194-5.66,2.887-32.682-.464-34.2-.855.931-3.3,1.569-5.39,1.383-2.41-.213-3.216-1.254-3.016-2.373-2.665,1.26-4.714,2.432-4.714,2.432-2.436,3.651-5.654,45.07-5.654,45.07Z" transform="translate(-5314.508 -2594.664)"/><path class="e" d="M5769.418,2417.75s9.709,1.608,10.617-4.453,2.772-9.935-3.389-11.218-7.712.849-8.507,2.8-1.222,12.3,1.279,12.873Z" transform="translate(-5438.304 -2264.585)"/><path class="l" d="M5850.13,2379.175s1.607,7.508,5.539,9.168,5.87.828,5.87.828a11.708,11.708,0,0,1-2.769-7.4s-6.126-5.677-8.64-2.591Z" transform="translate(-5516.198 -2242.49)"/><path class="l" d="M5768.239,2382.524a8.7,8.7,0,0,0-2.941,2.763c-.714,1.472-1.405,4.617-2.314,4.372,0,0-1.288-5.133,1.375-7.531,2.823-2.543,3.881.4,3.881.4Z" transform="translate(-5433.732 -2245.164)"/><path class="k" d="M5391.894,2160.152s-6.259,19.028-7.926,21.972c-1,1.776-12.28,8.8-18.826,13.423a1.1,1.1,0,0,0-.251.3l-.008.008c-1.634,2.527-6.711,18.164-5.5,20.97,5.1,11.8,8.6,16.358,9.875,19.667a3.142,3.142,0,0,1-1.879,4.092,53.655,53.655,0,0,1-8.833,2.312q-1.043.182-2.144.322c-10.061,1.276-16.872-1.084-20.33-2.829a4.606,4.606,0,0,1-2.521-4.37c.207-3.732,2.074-7.426,2.916-16.4.637-6.81-5.238-17.175-4.991-20.8.1-1.434,1.228-3.148,1.837-4.259,0,0,0,0,0,0,1.078-1.968,1.673-3.745.953-4.732-4.788-6.571-15.125-15.632-15.548-17.893-.617-3.325-.337-23.874-.337-23.874a6.143,6.143,0,0,1,1.735-.536,5.4,5.4,0,0,1,1.524.159s2.738,17.026,2.942,17.927,11.749,13.907,14.861,13.854c2.81-.047,6.772,2.124,7.39,2.54a29.848,29.848,0,0,0-3.152,10.509c-.44,4.223,2.382,2.345,4.153-.547a94.137,94.137,0,0,1,7.228-9.49s3.928-1.022,6.855.04,18.069-7.491,18.555-8.277,8.595-15.9,8.595-15.9a1.884,1.884,0,0,1,1.75.171,1.968,1.968,0,0,1,1.071,1.64Z" transform="translate(-5014.747 -2024.919)"/><path class="g" d="M5794.329,2618.164s-.416.837-.975.852a6.588,6.588,0,0,1-2.074-.264,7.979,7.979,0,0,1-.33-1.02,9.438,9.438,0,0,1,3.379.431Z" transform="translate(-5460.396 -2468.291)"/><path class="h" d="M5898.435,3039.14a53.651,53.651,0,0,1-8.833,2.312c-3.472-4.786-9.347-10.806-7.834-21.883,1.562-11.448,12.817-23.5,14.168-25.159-1.634,2.527-6.711,18.164-5.5,20.97,5.1,11.8,8.6,16.358,9.875,19.667a3.142,3.142,0,0,1-1.879,4.092Z" transform="translate(-5545.8 -2823.473)"/><path class="h" d="M5339.935,2597.945c1.079-1.968,1.673-3.745.954-4.732-4.788-6.571-15.125-15.632-15.548-17.894,1.025,2.458,13.545,9.8,17.065,12.962C5345.885,2591.4,5340.076,2597.793,5339.935,2597.945Z" transform="translate(-5021.363 -2428.305)"/><path class="o" d="M1888.281,1384.2a11.805,11.805,0,0,1,2.095,6.879c-.187,2.721-2.613,5.473-2.776,5.583l3.828,2.042s2.839-5.04,1.882-9.251a10.774,10.774,0,0,0-2.647-4.274A3.677,3.677,0,0,0,1888.281,1384.2Z" transform="translate(-1779.854 -1305.173)"/><path class="p" d="M1722.375,1301.629l-2.425-5.359s11.314.383,15.063,9.6C1735.013,1305.872,1727.1,1300.226,1722.375,1301.629Z" transform="translate(-1621.774 -1222.265)"/><path class="o" d="M907.447,3596.7a10.02,10.02,0,0,1-3.393-5.079,9.078,9.078,0,0,1,.885-5.219l-3.613-.721s-1.07,4.8.742,7.985a9.168,9.168,0,0,0,3.2,2.825,3.127,3.127,0,0,0,2.177.209Z" transform="translate(-849.582 -3380.993)"/><path class="p" d="M936.8,3734.506l3.287,3.76s-9.293,2.468-14.6-4.106c0,0,7.823,2.646,11.316.345Z" transform="translate(-872.653 -3520.997)"/><path class="q" d="M8258.483,3995.749s-.234-3.533,6.4-5.244c2.975-.767,9.595.6,5.4,7.11-4.366,6.774-8.255,4.328-8.255,4.328s9.1-7.125,5.458-10.385c-4.021-3.6-5.565,3.53-5.565,3.53a8.767,8.767,0,0,0-3.431.661Z" transform="translate(-7972.882 -3800.698)"/><path class="r" d="M8271.2,4129.785a3.534,3.534,0,0,1-1.5-4.325l3.568.619s-1.372,3.228,1.981,3.618c0,0-3.229.767-4.05.086Z" transform="translate(-7983.867 -3840.962)"/><path class="s" d="M3610.333,789.029s-3.708-5.338-9.392-1.558l-3.461-3.31s3.235-2.456,10.695,1.948c4.882,2.881,2.159,2.921,2.159,2.921Z" transform="translate(-3392.132 -738.743)"/><path class="t" d="M3729.4,808.031s.735-6.128-9.524-9.952c0,0,3.708,1.8,4.852,7.905Z" transform="translate(-3507.545 -752.512)"/><path class="k" d="M3050.13,333.218s-3.031-1.915-3.351-4.228c0,0-2.951.16-3.59,1.117,0,0,1.356,3.829,2.952,4.547,0,0,3.59.24,3.988-1.436Z" transform="translate(-2869.481 -310.199)"/><path class="k" d="M4873.72,4155.28s3.233-2.042,3.573-4.51c0,0,3.15.169,3.83,1.192,0,0-1.446,4.085-3.147,4.85,0,0-3.83.255-4.255-1.531Z" transform="translate(-4595.523 -3913.827)"/><path class="p" d="M5498.25,1384.9s3.249-2.052,3.59-4.53c0,0,3.161.171,3.846,1.2,0,0-1.453,4.1-3.162,4.872,0,0-3.847.256-4.273-1.538Z" transform="translate(-5184.404 -1301.565)"/><path class="g" d="M7402.825,2436.1s-.14.866,1.875,1.557c0,0,1.689.581,2-.308a5.742,5.742,0,0,0-3.873-1.25Z" transform="translate(-6980.261 -2297.034)"/><path class="e" d="M5317.01,2004.523s.394-1.965.838-3.464c.2-.664-1.173-5.021-2.12-5.558s-3.413,2.4-2.716,4.652c.358,1.158.948,4.924.948,4.924Z" transform="translate(-5009.624 -1881.522)"/></g></svg>