<svg xmlns="http://www.w3.org/2000/svg" width="208.845" height="36.343" viewBox="0 0 208.845 36.343"><defs><style>.a{fill:#fefefe;}.a,.b,.c{fill-rule:evenodd;}.b,.d{fill:#3f5975;}.c,.e{fill:#738eac;}</style></defs><g transform="translate(0 -0.02)"><path class="a" d="M406.181,464.113v0h-.053c-2-.077-3.177,2.088-4.256,2.829-2.218-1.865-3.621-5.081-9.619-10.163-1.188-1.006-.953-.76-1.982-1.555l-1.98-1.663c1.884-1.869,4.882-3.851,5.176-6.42.329-2.87-1.172-6.36-.55-11.265,5.772.781,10.682,9.789,13.022,10.362v.033h.012a.875.875,0,0,0,.128-.01.794.794,0,0,0,.092.005h.012v-.024c2.34-.573,7.25-9.58,13.022-10.362.622,4.905-.879,8.394-.55,11.265.294,2.569,3.292,4.551,5.176,6.421l-1.98,1.663c-1.029.8-.794.549-1.982,1.556-6,5.082-7.4,8.3-9.619,10.163-1.045-.718-2.177-2.769-4.066-2.829Z" transform="translate(-385.942 -433.214)"/><path class="b" d="M20.187,36.36h.037c4.65-.235,8.338-8.73,14.147-12.779,1.671-1.164,4.172-2.117,5.862-3.341-3.744-2.771-6.464-1.837-4.982-8.295,1.169-5.1.02-7.381-.958-11.919-4.966,1-9.264,5.4-11.752,7.344a5.919,5.919,0,0,1-2.409,1.41,5.758,5.758,0,0,1-2.44-1.413C15.2,5.418,10.906,1.019,5.94.02c-.978,4.538-2.127,6.823-.958,11.919C6.464,18.4,3.743,17.463,0,20.234c1.69,1.224,4.192,2.177,5.862,3.341,5.81,4.048,9.5,12.544,14.147,12.779v.008h.037c.043,0,.086,0,.129,0h.012Zm.037-6.921v0h-.047c-1.774-.069-2.812,1.848-3.768,2.5-1.964-1.651-3.205-4.5-8.515-9-1.052-.891-.844-.673-1.755-1.377L4.388,20.093c1.668-1.655,4.322-3.409,4.582-5.683.291-2.541-1.037-5.63-.487-9.972,5.109.692,9.456,8.665,11.527,9.173v.029h.01a.746.746,0,0,0,.113-.008.7.7,0,0,0,.082,0h.01v-.021c2.071-.507,6.418-8.481,11.527-9.173.55,4.342-.778,7.431-.487,9.972.26,2.274,2.914,4.029,4.582,5.683l-1.753,1.472c-.911.7-.7.486-1.755,1.377-5.31,4.5-6.551,7.345-8.515,9-.925-.635-1.927-2.451-3.6-2.5Z" transform="translate(0)"/><g transform="translate(11.82 19.044)"><path class="c" d="M1960.113,3150.79c.091-3.245-2.37-4.447-5.443-4.78C1954.728,3149.733,1956.873,3149.979,1960.113,3150.79Z" transform="translate(-1954.67 -3146.01)"/><path class="c" d="M3798.368,3151.43c-.091-3.245,2.37-4.446,5.443-4.78C3803.754,3150.373,3801.608,3150.62,3798.368,3151.43Z" transform="translate(-3787.217 -3146.646)"/></g><path class="d" d="M7049.489,1335.616v-2.473c0-.345-.16-.479-.531-.532a30.93,30.93,0,0,0-5.131-.346c-3.429,0-6.486.851-6.486,5.689V1351.7a.533.533,0,0,0,.532.532h3.456a.533.533,0,0,0,.532-.532v-7.763h6.886a.533.533,0,0,0,.532-.532v-2.526a.533.533,0,0,0-.532-.532h-6.886v-2.393c0-1.382.452-1.808,1.7-1.808h5.4a.533.533,0,0,0,.531-.532Zm17.413,8.321v-3.164c0-6.168-3.482-8.534-7.869-8.534s-7.87,2.366-7.87,8.534v3.164c0,6.168,3.483,8.534,7.87,8.534S7066.9,1350.105,7066.9,1343.938Zm-4.572,0c0,3.19-1.063,4.546-3.3,4.546s-3.271-1.356-3.271-4.546v-3.164c0-3.19,1.038-4.546,3.271-4.546s3.3,1.356,3.3,4.546Zm21.534,8.029a.589.589,0,0,0-.08-.266l-5.715-9.332,5.477-9.384a.375.375,0,0,0,.053-.16.383.383,0,0,0-.4-.346h-3.935a.861.861,0,0,0-.664.505l-2.979,5.37-3.3-5.37c-.16-.239-.372-.505-.665-.505h-4.281a.331.331,0,0,0-.346.505l5.61,9.119-5.557,9.6a.5.5,0,0,0-.053.186.352.352,0,0,0,.4.345h3.935c.293,0,.479-.213.665-.532l3.11-5.476,3.457,5.609a.7.7,0,0,0,.691.4h4.227C7083.73,1352.232,7083.863,1352.126,7083.863,1351.966Z" transform="translate(-6994.785 -1324.164)"/><path class="e" d="M15034.708,1351.82v-18.45a.9.9,0,0,0-.957-.93h-2.5a1.241,1.241,0,0,0-1.17.718l-4.067,7.577c-.105.213-.186.346-.292.346s-.186-.133-.292-.346l-4.067-7.577a1.241,1.241,0,0,0-1.17-.718h-2.5a.88.88,0,0,0-.957.9v18.477c0,.292.24.372.452.372h3.51a.485.485,0,0,0,.425-.532v-11.086c0-.186.08-.212.133-.212.079,0,.133.053.213.186l2.393,4.387a2.143,2.143,0,0,0,3.723,0l2.392-4.387c.08-.133.133-.186.213-.186.054,0,.134.026.134.212v11.086a.486.486,0,0,0,.425.532h3.509c.213,0,.453-.08.453-.372Zm18.158-.053a1.128,1.128,0,0,1-.027-.133l-3.96-16.483c-.612-2.552-2.553-2.951-4.388-2.951s-3.8.4-4.412,2.951l-3.962,16.483a1.122,1.122,0,0,1-.027.133.412.412,0,0,0,.452.425h3.722a.565.565,0,0,0,.532-.479l.957-4.36h5.451l.956,4.36a.567.567,0,0,0,.532.479h3.722A.412.412,0,0,0,15052.866,1351.767Zm-6.407-8.055h-3.962l1.622-7.338c.054-.266.134-.4.372-.4s.292.133.346.4Zm23.448,7.47v-18.237a.512.512,0,0,0-.532-.505h-3.137a.512.512,0,0,0-.532.505v11.245c0,.186-.078.239-.132.239-.08,0-.106-.053-.213-.213l-6.3-10.953c-.318-.558-.584-.824-1.116-.824h-2.685a1.011,1.011,0,0,0-1.012,1.01v18.211a.534.534,0,0,0,.533.532h3.137a.533.533,0,0,0,.532-.532v-10.767c0-.16.053-.213.133-.213s.132.053.239.213l6.062,10.475a1.374,1.374,0,0,0,1.382.824h2.605A1.033,1.033,0,0,0,15069.907,1351.182Zm18.156.585a1.164,1.164,0,0,1-.026-.133l-3.961-16.483c-.611-2.552-2.553-2.951-4.386-2.951s-3.8.4-4.414,2.951l-3.96,16.483a1.122,1.122,0,0,1-.027.133.413.413,0,0,0,.452.425h3.723a.566.566,0,0,0,.531-.479l.957-4.36h5.45l.957,4.36a.564.564,0,0,0,.532.479h3.722A.411.411,0,0,0,15088.063,1351.767Zm-6.405-8.055h-3.962l1.621-7.338c.054-.266.134-.4.373-.4s.292.133.346.4Zm20.815-7.683v-2.818c0-.24-.186-.346-.452-.4a25.2,25.2,0,0,0-5.557-.611c-3.855,0-8.082,1.7-8.082,8.481v3.3c0,6.726,4.547,8.454,7.577,8.454a28.837,28.837,0,0,0,5.956-.558c.4-.08.53-.239.53-.611v-8.933a.532.532,0,0,0-.53-.532h-3.4a.511.511,0,0,0-.5.532v6.115c-.639.053-1.3.08-2.047.08-1.3,0-2.978-.851-2.978-4.52v-3.323c0-3.483,1.329-4.52,3.481-4.52,2.26,0,4.254.16,5.531.213h.079C15102.313,1336.374,15102.474,1336.321,15102.474,1336.028Zm14.675,15.5v-2.472a.533.533,0,0,0-.531-.532h-5.4c-1.25,0-1.7-.425-1.7-1.808V1343.9h6.886a.534.534,0,0,0,.532-.532v-2.525a.534.534,0,0,0-.532-.532h-6.886v-2.419c0-1.382.451-1.808,1.7-1.808h5.4a.533.533,0,0,0,.531-.532v-2.472c0-.346-.16-.479-.531-.532a30.944,30.944,0,0,0-5.132-.346c-3.429,0-6.487.851-6.487,5.689v8.826c0,4.839,3.032,5.716,6.462,5.716a31.381,31.381,0,0,0,5.157-.346c.371-.053.531-.213.531-.558Zm17.626.345a.686.686,0,0,0-.08-.292l-4.014-7.5a5.358,5.358,0,0,0,3.429-5.317v-.345c0-4.706-3.482-6.221-8-6.221a42.108,42.108,0,0,0-5.4.346c-.823.133-1.2.372-1.2,1.276v17.839a.533.533,0,0,0,.531.532h3.456a.533.533,0,0,0,.532-.532v-6.752c.5,0,1.33.053,1.887.053l.292-.027,3.563,6.726c.132.266.239.532.532.532h4.066c.294,0,.4-.133.4-.319Zm-5.185-13.106c0,1.808-.877,2.525-3.669,2.525-.291,0-1.6-.026-1.887-.053v-5.1c.318-.027,1.7-.08,2.074-.08,2.232,0,3.481.744,3.481,2.366Z" transform="translate(-14925.93 -1324.124)"/></g></svg>